P3
100 50
255
0 0 0 0 0 0 0 0 0 0 0 0 0 0 0 0 0 0 0 0 0 0 0 0 0 0 0 0 0 0 0 0 0 0 0
0 0 0 0 0 0 0 0 0 0 0 0 0 0 0 0 0 0 0 0 0 0 0 0 0 0 0 0 0 0 0 0 0 0 0
0 0 0 0 0 0 0 0 0 0 0 0 0 0 0 0 0 0 0 0 0 0 0 0 0 0 0 0 0 0 0 0 0 0 0
0 0 0 0 0 0 0 0 0 0 0 0 0 0 0 0 0 0 0 0 0 0 0 0 0 0 0 0 0 0 0 0 0 0 0
0 0 0 0 0 0 0 0 0 0 0 0 0 0 0 0 0 0 0 0 0 0 0 0 0 0 0 0 0 0 0 0 0 0 0
0 0 0 0 0 0 0 0 0 0 0 0 0 0 0 0 0 0 0 0 0 0 0 0 0 0 0 0 0 0 0 0 0 0 0
0 0 0 0 0 0 0 0 0 0 0 0 0 0 0 0 0 0 0 0 0 0 0 0 0 0 0 0 0 0 0 0 0 0 0
0 0 0 0 0 0 0 0 0 0 0 0 0 0 0 0 0 0 0 0 0 0 0 0 0 0 0 0 0 0 0 0 0 0 0
0 0 0 0 0 0 0 0 0 0 0 0 0 0 0 0 0 0 0 0
0 0 0 0 0 0 0 0 0 0 0 0 0 0 0 0 0 0 0 0 0 0 0 0 0 0 0 0 0 0 0 0 0 0 0
0 0 0 0 0 0 0 0 0 0 0 0 0 0 0 0 0 0 0 0 0 0 0 0 0 0 0 0 0 0 0 0 0 0 0
0 0 0 0 0 0 0 0 0 0 0 0 0 0 0 0 0 0 0 0 0 0 0 0 0 0 0 0 0 0 0 0 0 0 0
0 0 0 0 0 0 0 0 0 0 0 0 0 0 0 0 0 0 0 0 0 0 0 0 0 0 0 0 0 0 0 0 0 0 0
0 0 0 0 0 0 0 0 0 0 0 0 0 0 0 0 0 0 0 0 0 0 0 0 0 0 0 0 0 0 0 0 0 0 0
0 0 0 0 0 0 0 0 0 0 0 0 0 0 0 0 0 0 0 0 0 0 0 0 0 0 0 0 0 0 0 0 0 0 0
0 0 0 0 0 0 0 0 0 0 0 0 0 0 0 0 0 0 0 0 0 0 0 0 0 0 0 0 0 0 0 0 0 0 0
0 0 0 0 0 0 0 0 0 0 0 0 0 0 0 0 0 0 0 0 0 0 0 0 0 0 0 0 0 0 0 0 0 0 0
0 0 0 0 0 0 0 0 0 0 0 0 0 0 0 0 0 0 0 0
0 0 0 0 0 0 0 0 0 0 0 0 0 0 0 0 0 0 0 0 0 0 0 0 0 0 0 0 0 0 0 0 0 0 0
0 0 0 0 0 0 0 0 0 0 0 0 0 0 0 0 0 0 0 0 0 0 0 0 0 0 0 0 0 0 0 0 0 0 0
0 0 0 0 0 0 0 0 0 0 0 0 0 0 0 0 0 0 0 0 0 0 0 0 0 0 0 0 0 0 0 0 0 0 0
0 0 0 0 0 0 0 0 0 0 0 0 0 0 0 0 0 0 0 0 0 0 0 0 0 0 0 0 0 0 0 0 0 0 0
0 0 0 0 0 0 0 0 0 0 0 0 0 0 0 0 0 0 0 0 0 0 0 0 0 0 0 0 0 0 0 0 0 0 0
0 0 0 0 0 0 0 0 0 0 0 0 0 0 0 0 0 0 0 0 0 0 0 0 0 0 0 0 0 0 0 0 0 0 0
0 0 0 0 0 0 0 0 0 0 0 0 0 0 0 0 0 0 0 0 0 0 0 0 0 0 0 0 0 0 0 0 0 0 0
0 0 0 0 0 0 0 0 0 0 0 0 0 0 0 0 0 0 0 0 0 0 0 0 0 0 0 0 0 0 0 0 0 0 0
0 0 0 0 0 0 0 0 0 0 0 0 0 0 0 0 0 0 0 0
0 0 0 0 0 0 0 0 0 0 0 0 0 0 0 0 0 0 0 0 0 0 0 0 0 0 0 0 0 0 0 0 0 0 0
0 0 0 0 0 0 0 0 0 0 0 0 0 0 0 0 0 0 0 0 0 0 0 0 0 0 0 0 0 0 0 0 0 0 0
0 0 0 0 0 0 0 0 0 0 0 0 0 0 0 0 0 0 0 0 0 0 0 0 0 0 0 0 0 0 0 0 0 0 0
0 0 0 0 0 0 0 0 0 0 0 0 0 0 0 0 0 0 0 0 0 0 0 0 0 0 0 0 0 0 0 0 0 0 0
0 0 0 0 0 0 0 0 0 0 0 0 0 0 0 0 0 0 0 0 0 0 0 0 0 0 0 0 0 0 0 0 0 0 0
0 0 0 0 0 0 0 0 0 0 0 0 0 0 0 0 0 0 0 0 0 0 0 0 0 0 0 0 0 0 0 0 0 0 0
0 0 0 0 0 0 0 0 0 0 0 0 0 0 0 0 0 0 0 0 0 0 0 0 0 0 0 0 0 0 0 0 0 0 0
0 0 0 0 0 0 0 0 0 0 0 0 0 0 0 0 0 0 0 0 0 0 0 0 0 0 0 0 0 0 0 0 0 0 0
0 0 0 0 0 0 0 0 0 0 0 0 0 0 0 0 0 0 0 0
0 0 0 0 0 0 0 0 0 0 0 0 0 0 0 0 0 0 0 0 0 0 0 0 0 0 0 0 0 0 0 0 0 0 0
0 0 0 0 0 0 0 0 0 0 0 0 0 0 0 0 0 0 0 0 0 0 0 0 0 0 0 0 0 0 0 0 0 0 0
0 0 0 0 0 0 0 0 0 0 0 0 0 0 0 0 0 0 0 0 0 0 0 0 0 0 0 0 0 0 0 0 0 0 0
0 0 0 0 0 0 0 0 0 0 0 0 0 0 0 0 0 0 0 0 0 0 0 0 0 0 0 0 0 0 0 0 0 0 0
0 0 0 0 0 0 0 0 0 0 0 0 0 0 0 0 0 0 0 0 0 0 0 0 0 0 0 0 0 0 0 0 0 0 0
0 0 0 0 0 0 0 0 0 0 0 0 0 0 0 0 0 0 0 0 0 0 0 0 0 0 0 0 0 0 0 0 0 0 0
0 0 0 0 0 0 0 0 0 0 0 0 0 0 0 0 0 0 0 0 0 0 0 0 0 0 0 0 0 0 0 0 0 0 0
0 0 0 0 0 0 0 0 0 0 0 0 0 0 0 0 0 0 0 0 0 0 0 0 0 0 0 0 0 0 0 0 0 0 0
0 0 0 0 0 0 0 0 0 0 0 0 0 0 0 0 0 0 0 0
0 0 0 0 0 0 0 0 0 0 0 0 0 0 0 0 0 0 0 0 0 0 0 0 0 0 0 0 0 0 0 0 0 0 0
0 0 0 0 0 0 0 0 0 0 0 0 0 0 0 0 0 0 0 0 0 0 0 0 0 0 0 0 0 0 0 0 0 0 0
0 0 0 0 0 0 0 0 0 0 0 0 0 0 0 0 0 0 0 0 0 0 0 0 0 0 0 0 0 0 0 0 0 0 0
0 0 0 0 0 0 0 0 0 0 0 0 0 0 0 0 0 0 0 0 0 0 0 0 0 0 0 0 0 0 0 0 0 0 0
0 0 0 0 0 0 0 0 0 0 0 0 0 0 0 0 0 0 0 0 0 0 0 0 0 0 0 0 0 0 0 0 0 0 0
0 0 0 0 0 0 0 0 0 0 0 0 0 0 0 0 0 0 0 0 0 0 0 0 0 0 0 0 0 0 0 0 0 0 0
0 0 0 0 0 0 0 0 0 0 0 0 0 0 0 0 0 0 0 0 0 0 0 0 0 0 0 0 0 0 0 0 0 0 0
0 0 0 0 0 0 0 0 0 0 0 0 0 0 0 0 0 0 0 0 0 0 0 0 0 0 0 0 0 0 0 0 0 0 0
0 0 0 0 0 0 0 0 0 0 0 0 0 0 0 0 0 0 0 0
0 0 0 0 0 0 0 0 0 0 0 0 0 0 0 0 0 0 0 0 0 0 0 0 0 0 0 0 0 0 0 0 0 0 0
0 0 0 0 0 0 0 0 0 0 0 0 0 0 0 0 0 0 0 0 0 0 0 0 0 0 0 0 0 0 0 0 0 0 0
0 0 0 0 0 0 0 0 0 0 0 0 0 0 0 0 0 0 0 0 0 0 0 0 0 0 0 0 0 0 0 0 0 0 0
0 0 0 0 0 0 0 0 0 0 0 0 0 0 0 0 0 0 0 0 0 0 0 0 0 0 0 0 0 0 0 0 0 0 0
0 0 0 0 0 0 0 0 0 0 0 0 0 0 0 0 0 0 0 0 0 0 0 0 0 0 0 0 0 0 0 0 0 0 0
0 0 0 0 0 0 0 0 0 0 0 0 0 0 0 0 0 0 0 0 0 0 0 0 0 0 0 0 0 0 0 0 0 0 0
0 0 0 0 0 0 0 0 0 0 0 0 0 0 0 0 0 0 0 0 0 0 0 0 0 0 0 0 0 0 0 0 0 0 0
0 0 0 0 0 0 0 0 0 0 0 0 0 0 0 0 0 0 0 0 0 0 0 0 0 0 0 0 0 0 0 0 0 0 0
0 0 0 0 0 0 0 0 0 0 0 0 0 0 0 0 0 0 0 0
0 0 0 0 0 0 0 0 0 0 0 0 0 0 0 0 0 0 0 0 0 0 0 0 0 0 0 0 0 0 0 0 0 0 0
0 0 0 0 0 0 0 0 0 0 0 0 0 0 0 0 0 0 0 0 0 0 0 0 0 0 0 0 0 0 0 0 0 0 0
0 0 0 0 0 0 0 0 0 0 0 0 0 0 0 0 0 0 0 0 0 0 0 0 0 0 0 0 0 0 0 0 0 0 0
0 0 0 0 0 0 0 0 0 0 0 0 0 0 0 0 0 0 0 0 0 0 0 0 0 0 0 0 0 0 0 0 0 0 0
0 0 0 0 0 0 0 0 0 0 0 0 0 0 0 0 0 0 0 0 0 0 0 0 0 0 0 0 0 0 0 0 0 0 0
0 0 0 0 0 0 0 0 0 0 0 0 0 0 0 0 0 0 0 0 0 0 0 0 0 0 0 0 0 0 0 0 0 0 0
0 0 0 0 0 0 0 0 0 0 0 0 0 0 0 0 0 0 0 0 0 0 0 0 0 0 0 0 0 0 0 0 0 0 0
0 0 0 0 0 0 0 0 0 0 0 0 0 0 0 0 0 0 0 0 0 0 0 0 0 0 0 0 0 0 0 0 0 0 0
0 0 0 0 0 0 0 0 0 0 0 0 0 0 0 0 0 0 0 0
0 0 0 0 0 0 0 0 0 0 0 0 0 0 0 0 0 0 0 0 0 0 0 0 0 0 0 0 0 0 0 0 0 0 0
0 0 0 0 0 0 0 0 0 0 0 0 0 0 0 0 0 0 0 0 0 0 0 0 0 0 0 0 0 0 0 0 0 0 0
0 0 0 0 0 0 0 0 0 0 0 0 0 0 0 0 0 0 0 0 0 0 0 0 0 0 0 0 0 0 0 0 0 0 0
0 0 0 0 0 0 0 0 0 0 0 0 0 0 0 14 144 72 14 140 70 13 132 66 12 122 61
0 0 0 0 0 0 0 0 0 0 0 0 0 0 0 0 0 0 0 0 0 0 0 0 0 0 0 0 0 0 0 0 0 0 0
0 0 0 0 0 0 0 0 0 0 0 0 0 0 0 0 0 0 0 0 0 0 0 0 0 0 0 0 0 0 0 0 0 0 0
0 0 0 0 0 0 0 0 0 0 0 0 0 0 0 0 0 0 0 0 0 0 0 0 0 0 0 0 0 0 0 0 0 0 0
0 0 0 0 0 0 0 0 0 0 0 0 0 0 0 0 0 0 0 0 0 0 0 0 0 0 0 0 0 0 0 0 0 0 0
0 0 0 0 0 0 0 0 0 0 0 0 0 0 0 0 0 0 0 0 0 0 0 0 0 0 0 0
0 0 0 0 0 0 0 0 0 0 0 0 0 0 0 0 0 0 0 0 0 0 0 0 0 0 0 0 0 0 0 0 0 0 0
0 0 0 0 0 0 0 0 0 0 0 0 0 0 0 0 0 0 0 0 0 0 0 0 0 0 0 0 0 0 0 0 0 0 0
0 0 0 0 0 0 0 0 0 0 0 0 0 0 0 0 0 0 0 0 0 0 0 0 0 0 0 0 0 0 0 0 0 0 0
0 0 0 17 171 86 17 173 86 17 170 85 17 166 83 16 161 81 16 155 78 15
148 74 14 140 70 13 131 66 12 121 60 11 108 54 9 91 46 0 0 0 0 0 0 0 0
0 0 0 0 0 0 0 0 0 0 0 0 0 0 0 0 0 0 0 0 0 0 0 0 0 0 0 0 0 0 0 0 0 0 0
0 0 0 0 0 0 0 0 0 0 0 0 0 0 0 0 0 0 0 0 0 0 0 0 0 0 0 0 0 0 0 0 0 0 0
0 0 0 0 0 0 0 0 0 0 0 0 0 0 0 0 0 0 0 0 0 0 0 0 0 0 0 0 0 0 0 0 0 0 0
0 0 0 0 0 0 0 0 0 0 0 0 0 0 0 0 0 0 0 0 0 0 0 0 0 0 0 0 0 0 0 0 0 0 0
0 0 0 0 0 0 0 0
0 0 0 0 0 0 0 0 0 0 0 0 0 0 0 0 0 0 0 0 0 0 0 0 0 0 0 0 0 0 0 0 0 0 0
0 0 0 0 0 0 0 0 0 0 0 0 0 0 0 0 0 0 0 0 0 0 0 0 0 0 0 0 0 0 0 0 0 0 0
0 0 0 0 0 0 0 0 0 0 0 0 0 0 0 0 0 0 0 0 0 0 0 0 0 0 0 0 0 0 0 0 18 183
92 19 185 93 18 184 92 18 181 91 18 177 89 17 173 86 17 167 84 16 161
80 15 154 77 15 147 73 14 138 69 13 129 65 12 119 60 11 108 54 9 94 47
7 75 37 0 0 0 0 0 0 0 0 0 0 0 0 0 0 0 0 0 0 0 0 0 0 0 0 0 0 0 0 0 0 0
0 0 0 0 0 0 0 0 0 0 0 0 0 0 0 0 0 0 0 0 0 0 0 0 0 0 0 0 0 0 0 0 0 0 0
0 0 0 0 0 0 0 0 0 0 0 0 0 0 0 0 0 0 0 0 0 0 0 0 0 0 0 0 0 0 0 0 0 0 0
0 0 0 0 0 0 0 0 0 0 0 0 0 0 0 0 0 0 0 0 0 0 0 0 0 0 0 0 0 0 0 0 0 0 0
0 0 0 0 0 0 0 0 0 0 0 0 0 0
0 0 0 0 0 0 0 0 0 0 0 0 0 0 0 0 0 0 0 0 0 0 0 0 0 0 0 0 0 0 0 0 0 0 0
0 0 0 0 0 0 0 0 0 0 0 0 0 0 0 0 0 0 0 0 0 0 0 0 0 0 0 0 0 0 0 0 0 0 0
0 0 0 0 0 0 0 0 0 0 0 0 0 0 0 0 0 0 0 0 0 0 0 0 0 0 18 184 92 19 192
96 19 193 97 19 192 96 19 189 94 19 185 93 18 181 90 18 176 88 17 170
85 16 164 82 16 157 78 15 150 75 14 142 71 13 133 67 12 124 62 11 114
57 10 102 51 9 89 44 7 72 36 0 0 0 0 0 0 0 0 0 0 0 0 0 0 0 0 0 0 0 0 0
0 0 0 0 0 0 0 0 0 0 0 0 0 0 0 0 0 0 0 0 0 0 0 0 0 0 0 0 0 0 0 0 0 0 0
0 0 0 0 0 0 0 0 0 0 0 0 0 0 0 0 0 0 0 0 0 0 0 0 0 0 0 0 0 0 0 0 0 0 0
0 0 0 0 0 0 0 0 0 0 0 0 0 0 0 0 0 0 0 0 0 0 0 0 0 0 0 0 0 0 0 0 0 0 0
0 0 0 0 0 0 0 0 0 0 0 0 0 0 0 0 0 0 0 0 0
0 0 0 0 0 0 0 0 0 0 0 0 0 0 0 0 0 0 0 0 0 0 0 0 0 0 0 0 0 0 0 0 0 0 0
0 0 0 0 0 0 0 0 0 0 0 0 0 0 0 0 0 0 0 0 0 0 0 0 0 0 0 0 0 0 0 0 0 0 0
0 0 0 0 0 0 0 0 0 0 0 0 0 0 0 0 0 0 0 0 0 0 0 19 191 96 20 197 99 20
198 99 20 197 98 19 194 97 19 191 95 19 187 93 18 182 91 18 177 88 17
171 86 16 165 82 16 158 79 15 151 76 14 143 72 14 135 68 13 126 63 12
117 58 11 106 53 9 95 47 8 81 41 6 65 32 4 39 20 0 0 0 0 0 0 0 0 0 0 0
0 0 0 0 0 0 0 0 0 0 0 0 0 0 0 0 0 0 0 0 0 0 0 0 0 0 0 0 0 0 0 0 0 0 0
0 0 0 0 0 0 0 0 0 0 0 0 0 0 0 0 0 0 0 0 0 0 0 0 0 0 0 0 0 0 0 0 0 0 0
0 0 0 0 0 0 0 0 0 0 0 0 0 0 0 0 0 0 0 0 0 0 0 0 0 0 0 0 0 0 0 0 0 0 0
0 0 0 0 0 0 0 0 0 0 0 0 0 0 0 0 0 0 0 0 0 0 0 0 0
0 0 0 0 0 0 0 0 0 0 0 0 0 0 0 0 0 0 0 0 0 0 0 0 0 0 0 0 0 0 0 0 0 0 0
0 0 0 0 0 0 0 0 0 0 0 0 0 0 0 0 0 0 0 0 0 0 0 0 0 0 0 0 0 0 0 0 0 0 0
0 0 0 0 0 0 0 0 0 0 0 0 0 0 0 0 0 0 0 0 19 193 97 20 200 100 20 201
101 20 200 100 20 198 99 20 195 98 19 191 96 19 187 93 18 182 91 18
177 88 17 171 86 16 165 82 16 158 79 15 151 76 14 144 72 14 136 68 13
127 64 12 118 59 11 108 54 10 97 49 9 85 43 7 71 36 5 54 27 3 28 14 0
0 0 0 0 0 0 0 0 0 0 0 0 0 0 0 0 0 0 0 0 0 0 0 0 0 0 0 0 0 0 0 0 0 0 0
0 0 0 0 0 0 0 0 0 0 0 0 0 0 0 0 0 0 0 0 0 0 0 0 0 0 0 0 0 0 0 0 0 0 0
0 0 0 0 0 0 0 0 0 0 0 0 0 0 0 0 0 0 0 0 0 0 0 0 0 0 0 0 0 0 0 0 0 0 0
0 0 0 0 0 0 0 0 0 0 0 0 0 0 0 0 0 0 0 0 0 0 0 0 0 0 0 0 0 0 0 0
0 0 0 0 0 0 0 0 0 0 0 0 0 0 0 0 0 0 0 0 0 0 0 0 0 0 0 0 0 0 0 0 0 0 0
0 0 0 0 0 0 0 0 0 0 0 0 0 0 0 0 0 0 0 0 0 0 0 0 0 0 0 0 0 0 0 0 0 0 0
0 0 0 0 0 0 0 0 0 0 0 0 0 0 0 0 0 19 191 96 20 201 101 20 203 102 20
203 101 20 201 100 20 198 99 19 195 97 19 191 95 19 186 93 18 181 91
18 176 88 17 170 85 16 164 82 16 158 79 15 151 75 14 143 72 14 136 68
13 127 64 12 118 59 11 109 54 10 99 49 9 87 44 7 75 37 6 60 30 4 42 21
3 26 13 0 0 0 0 0 0 0 0 0 0 0 0 0 0 0 0 0 0 0 0 0 0 0 0 0 0 0 0 0 0 0
0 0 0 0 0 0 0 0 0 0 0 0 0 0 0 0 0 0 0 0 0 0 0 0 0 0 0 0 0 0 0 0 0 0 0
0 0 0 0 0 0 0 0 0 0 0 0 0 0 0 0 0 0 0 0 0 0 0 0 0 0 0 0 0 0 0 0 0 0 0
0 0 0 0 0 0 0 0 0 0 0 0 0 0 0 0 0 0 0 0 0 0 0 0 0 0 0 0 0 0 0 0 0 0
0 0 0 0 0 0 0 0 0 0 0 0 0 0 0 0 0 0 0 0 0 0 0 0 0 0 0 0 0 0 0 0 0 0 0
0 0 0 0 0 0 0 0 0 0 0 0 0 0 0 0 0 0 0 0 0 0 0 0 0 0 0 0 0 0 0 0 0 0 0
0 0 0 0 0 0 0 0 0 0 0 0 0 0 0 0 0 20 200 100 20 204 102 20 204 102 20
203 101 20 200 100 20 197 99 19 194 97 19 190 95 18 185 92 18 180 90
17 175 87 17 169 84 16 163 81 16 156 78 15 149 75 14 142 71 13 135 67
13 126 63 12 118 59 11 109 54 10 99 49 9 88 44 8 76 38 6 63 31 5 47 23
3 26 13 0 0 0 0 0 0 0 0 0 0 0 0 0 0 0 0 0 0 0 0 0 0 0 0 0 0 0 0 0 0 0
0 0 0 0 0 0 0 0 0 0 0 0 0 0 0 0 0 0 0 0 0 0 0 0 0 0 0 0 0 0 0 0 0 0 0
0 0 0 0 0 0 0 0 0 0 0 0 0 0 0 0 0 0 0 0 0 0 0 0 0 0 0 0 0 0 0 0 0 0 0
0 0 0 0 0 0 0 0 0 0 0 0 0 0 0 0 0 0 0 0 0 0 0 0 0 0 0 0 0 0 0 0 0 0
0 0 0 0 0 0 0 0 0 0 0 0 0 0 0 0 0 0 0 0 0 0 0 0 0 0 0 0 0 0 0 0 0 0 0
0 0 0 0 0 0 0 0 0 0 0 0 0 0 0 0 0 0 0 0 0 0 0 0 0 0 0 0 0 0 0 0 0 0 0
0 0 0 0 0 0 0 0 0 0 0 0 0 0 20 196 98 20 202 101 20 204 102 20 203 102
20 202 101 20 199 99 20 196 98 19 192 96 19 188 94 18 183 92 18 178 89
17 173 86 17 167 83 16 161 80 15 154 77 15 148 74 14 140 70 13 133 66
12 125 62 12 116 58 11 107 54 10 98 49 9 87 44 8 76 38 6 63 32 5 49 24
3 31 16 3 26 13 0 0 0 0 0 0 0 0 0 0 0 0 0 0 0 0 0 0 0 0 0 0 0 0 0 0 0
0 0 0 0 0 0 0 0 0 0 0 0 0 0 0 0 0 0 0 0 0 0 0 0 0 0 0 0 0 0 0 0 0 0 0
0 0 0 0 0 0 0 0 0 0 0 0 0 0 0 0 0 0 0 0 0 0 0 0 0 0 0 0 0 0 0 0 0 0 0
0 0 0 0 0 0 0 0 0 0 0 0 0 0 0 0 0 0 0 0 0 0 0 0 0 0 0 0 0 0 0 0 0 0 0
0 0 0 0 0 0 0 0 0 0 0 0 0 0 0 0 0 0 0 0 0 0 0 0 0 0 0 0 0 0 0 0 0 0 0
0 0 0 0 0 0 0 0 0 0 0 0 0 0 0 0 0 0 0 0 0 0 0 0 0 0 0 0 0 0 0 0 0 0 0
0 0 0 0 0 0 0 0 0 0 0 18 181 90 20 199 99 20 202 101 20 203 101 20 202
101 20 200 100 20 197 98 19 193 97 19 190 95 19 185 93 18 181 90 18
176 88 17 170 85 16 164 82 16 158 79 15 152 76 15 145 73 14 138 69 13
131 65 12 123 61 11 115 57 11 106 53 10 96 48 9 86 43 8 75 38 6 63 32
5 49 25 3 33 17 3 26 13 0 0 0 0 0 0 0 0 0 0 0 0 0 0 0 0 0 0 0 0 0 0 0
0 0 0 0 0 0 0 0 0 0 0 0 0 0 0 0 0 0 0 0 0 0 0 0 0 0 0 0 0 0 0 0 0 0 0
0 0 0 0 0 0 0 0 0 0 0 0 0 0 0 0 0 0 0 0 0 0 0 0 0 0 0 0 0 0 0 0 0 0 0
0 0 0 0 0 0 0 0 0 0 0 0 0 0 0 0 0 0 0 0 0 0 0 0 0 0 0 0 0 0 0 0 0 0 0
0 0 0 0
0 0 0 0 0 0 0 0 0 0 0 0 0 0 0 0 0 0 0 0 0 0 0 0 0 0 0 0 0 0 0 0 0 0 0
0 0 0 0 0 0 0 0 0 0 0 0 0 0 0 0 0 0 0 0 0 0 0 0 0 0 0 0 0 0 0 0 0 0 0
0 0 0 0 0 0 0 0 0 0 0 19 191 96 20 199 99 20 201 100 20 201 100 20 199
100 20 197 99 19 194 97 19 191 95 25 193 100 34 198 107 19 179 91 17
173 86 17 167 84 16 162 81 16 156 78 15 149 75 14 143 71 14 136 68 13
128 64 12 120 60 11 112 56 10 103 52 9 94 47 8 84 42 7 74 37 6 62 31 5
49 24 3 34 17 3 26 13 3 26 13 0 0 0 0 0 0 0 0 0 0 0 0 0 0 0 0 0 0 0 0
0 0 0 0 0 0 0 0 0 0 0 0 0 0 0 0 0 0 0 0 0 0 0 0 0 0 0 0 0 0 0 0 0 0 0
0 0 0 0 0 0 0 0 0 0 0 0 0 0 0 0 0 0 0 0 0 0 0 0 0 0 0 0 0 0 0 0 0 0 0
0 0 0 0 0 0 0 0 0 0 0 0 0 0 0 0 0 0 0 0 0 0 0 0 0 0 0 0 0 0 0 0 0 0 0
0 0 0 0
0 0 0 0 0 0 0 0 0 0 0 0 0 0 0 0 0 0 0 0 0 0 0 0 0 0 0 0 0 0 0 0 0 0 0
0 0 0 0 0 0 0 0 0 0 0 0 0 0 0 0 0 0 0 0 0 0 0 0 0 0 0 0 0 0 0 0 0 0 0
0 0 0 0 0 0 0 0 0 0 0 19 192 96 20 197 99 20 199 99 20 198 99 20 197
98 19 194 97 19 191 96 20 189 95 66 231 139 74 235 145 21 178 90 17
170 85 16 164 82 16 158 79 15 152 76 15 146 73 14 140 70 13 133 66 13
125 63 12 117 59 11 109 55 10 101 50 9 92 46 8 82 41 7 71 36 6 60 30 5
47 24 3 33 16 3 26 13 3 26 13 0 0 0 0 0 0 0 0 0 0 0 0 0 0 0 0 0 0 0 0
0 0 0 0 0 0 0 0 0 0 0 0 0 0 0 0 0 0 0 0 0 0 0 0 0 0 0 0 0 0 0 0 0 0 0
0 0 0 0 0 0 0 0 0 0 0 0 0 0 0 0 0 0 0 0 0 0 0 0 0 0 0 0 0 0 0 0 0 0 0
0 0 0 0 0 0 0 0 0 0 0 0 0 0 0 0 0 0 0 0 0 0 0 0 0 0 0 0 0 0 0 0 0 0 0
0 0 0 0
0 0 0 0 0 0 0 0 0 0 0 0 0 0 0 0 0 0 0 0 0 0 0 0 0 0 0 0 0 0 0 0 0 0 0
0 0 0 0 0 0 0 0 0 0 0 0 0 0 0 0 0 0 0 0 0 0 0 0 0 0 0 0 0 0 0 0 0 0 0
0 0 0 0 0 0 0 0 18 175 88 19 191 95 19 195 97 20 196 98 19 195 97 19
193 97 19 191 95 19 188 94 20 185 93 36 199 109 29 188 100 17 171 86
17 166 83 16 161 80 15 155 77 15 149 74 14 143 71 14 136 68 13 129 65
12 122 61 11 114 57 11 106 53 10 98 49 9 89 44 8 79 39 7 68 34 6 57 29
4 45 22 3 31 15 3 26 13 3 26 13 0 0 0 0 0 0 0 0 0 0 0 0 0 0 0 0 0 0 0
0 0 0 0 0 0 0 0 0 0 0 0 0 0 0 0 0 0 0 0 0 0 0 0 0 0 0 0 0 0 0 0 0 0 0
0 0 0 0 0 0 0 0 0 0 0 0 0 0 0 0 0 0 0 0 0 0 0 0 0 0 0 0 0 0 0 0 0 0 0
0 0 0 0 0 0 0 0 0 0 0 0 0 0 0 0 0 0 0 0 0 0 0 0 0 0 0 0 0 0 0 0 0 0 0
0 0 0 0 0
0 0 0 0 0 0 0 0 0 0 0 0 0 0 0 0 0 0 0 0 0 0 0 0 0 0 0 0 0 0 0 0 0 0 0
0 0 0 0 0 0 0 0 0 0 0 0 0 0 0 0 0 0 0 0 0 0 0 0 0 0 0 0 0 0 0 0 0 0 0
0 0 0 0 0 0 0 0 18 178 89 19 188 94 19 191 96 19 192 96 19 191 96 19
189 95 19 187 93 18 184 92 18 180 90 18 177 89 17 172 86 17 167 84 16
162 81 16 157 78 15 151 76 15 145 73 14 139 69 13 132 66 13 125 63 12
118 59 11 111 55 10 103 51 9 94 47 9 85 43 8 75 38 7 65 33 5 54 27 4
42 21 3 28 14 3 26 13 3 26 13 3 26 13 0 0 0 0 0 0 0 0 0 0 0 0 0 0 0 0
0 0 0 0 0 0 0 0 0 0 0 0 0 0 0 0 0 0 0 0 0 0 0 0 0 0 0 0 0 0 0 0 0 0 0
0 0 0 0 0 0 0 0 0 0 0 0 0 0 0 0 0 0 0 0 0 0 0 0 0 0 0 0 0 0 0 0 0 0 0
0 0 0 0 0 0 0 0 0 0 0 0 0 0 0 0 0 0 0 0 0 0 0 0 0 0 0 0 0 0 0 0 0 0 0
0 0 0 0 0
0 0 0 0 0 0 0 0 0 0 0 0 0 0 0 0 0 0 0 0 0 0 0 0 0 0 0 0 0 0 0 0 0 0 0
0 0 0 0 0 0 0 0 0 0 0 0 0 0 0 0 0 0 0 0 0 0 0 0 0 0 0 0 0 0 0 0 0 0 0
0 0 0 0 0 0 0 0 18 176 88 18 185 92 19 187 94 19 188 94 19 187 94 19
185 93 18 183 91 18 180 90 18 176 88 17 172 86 17 168 84 16 163 81 16
158 79 15 153 76 15 147 73 14 141 71 13 135 67 13 128 64 12 121 61 11
114 57 11 107 53 10 99 49 9 90 45 8 81 41 7 72 36 6 61 31 5 50 25 4 38
19 3 26 13 3 26 13 3 26 13 3 26 13 0 0 0 0 0 0 0 0 0 0 0 0 0 0 0 0 0 0
0 0 0 0 0 0 0 0 0 0 0 0 0 0 0 0 0 0 0 0 0 0 0 0 0 0 0 0 0 0 0 0 0 0 0
0 0 0 0 0 0 0 0 0 0 0 0 0 0 0 0 0 0 0 0 0 0 0 0 0 0 0 0 0 0 0 0 0 0 0
0 0 0 0 0 0 0 0 0 0 0 0 0 0 0 0 0 0 0 0 0 0 0 0 0 0 0 0 0 0 0 0 0 0 0
0 0 0
0 0 0 0 0 0 0 0 0 0 0 0 0 0 0 0 0 0 0 0 0 0 0 0 0 0 0 0 0 0 0 0 0 0 0
0 0 0 0 0 0 0 0 0 0 0 0 0 0 0 0 0 0 0 0 0 0 0 0 0 0 0 0 0 0 0 0 0 0 0
0 0 0 0 0 0 0 0 17 172 86 18 180 90 18 183 91 18 183 92 18 182 91 18
181 90 18 178 89 17 175 87 17 171 86 17 167 84 16 163 82 16 158 79 15
153 77 15 148 74 14 142 71 14 137 68 13 130 65 12 124 62 12 117 58 11
110 55 10 102 51 9 94 47 9 86 43 8 77 38 7 67 34 6 57 29 5 46 23 3 34
17 3 26 13 3 26 13 3 26 13 3 26 13 0 0 0 0 0 0 0 0 0 0 0 0 0 0 0 0 0 0
0 0 0 0 0 0 0 0 0 0 0 0 0 0 0 0 0 0 0 0 0 0 0 0 0 0 0 0 0 0 0 0 0 0 0
0 0 0 0 0 0 0 0 0 0 0 0 0 0 0 0 0 0 0 0 0 0 0 0 0 0 0 0 0 0 0 0 0 0 0
0 0 0 0 0 0 0 0 0 0 0 0 0 0 0 0 0 0 0 0 0 0 0 0 0 0 0 0 0 0 0 0 0 0 0
0 0 0
0 0 0 0 0 0 0 0 0 0 0 0 0 0 0 0 0 0 0 0 0 0 0 0 0 0 0 0 0 0 0 0 0 0 0
0 0 0 0 0 0 0 0 0 0 0 0 0 0 0 0 0 0 0 0 0 0 0 0 0 0 0 0 0 0 0 0 0 0 0
0 0 0 0 0 0 0 0 17 167 83 18 175 88 18 178 89 18 178 89 18 177 89 18
176 88 17 173 87 17 170 85 17 166 83 16 163 81 16 158 79 15 154 77 15
149 74 14 143 72 14 138 69 13 132 66 13 126 63 12 119 60 11 112 56 11
105 53 10 98 49 9 90 45 8 81 41 7 72 36 6 63 31 5 53 26 4 42 21 3 29
15 3 26 13 3 26 13 3 26 13 3 26 13 0 0 0 0 0 0 0 0 0 0 0 0 0 0 0 0 0 0
0 0 0 0 0 0 0 0 0 0 0 0 0 0 0 0 0 0 0 0 0 0 0 0 0 0 0 0 0 0 0 0 0 0 0
0 0 0 0 0 0 0 0 0 0 0 0 0 0 0 0 0 0 0 0 0 0 0 0 0 0 0 0 0 0 0 0 0 0 0
0 0 0 0 0 0 0 0 0 0 0 0 0 0 0 0 0 0 0 0 0 0 0 0 0 0 0 0 0 0 0 0 0 0 0
0 0 0
0 0 0 0 0 0 0 0 0 0 0 0 0 0 0 0 0 0 0 0 0 0 0 0 0 0 0 0 0 0 0 0 0 0 0
0 0 0 0 0 0 0 0 0 0 0 0 0 0 0 0 0 0 0 0 0 0 0 0 0 0 0 0 0 0 0 0 0 0 0
0 0 0 0 0 0 0 0 16 160 80 17 169 85 17 172 86 17 173 86 17 172 86 17
170 85 17 168 84 16 165 82 16 161 81 16 157 79 15 153 77 15 148 74 14
143 72 14 138 69 13 133 66 13 127 63 12 121 60 11 114 57 11 107 54 10
100 50 9 92 46 8 85 42 8 76 38 7 67 34 6 58 29 5 47 24 4 36 18 3 26 13
3 26 13 3 26 13 3 26 13 3 26 13 119 107 107 119 107 107 118 107 107
118 106 106 118 106 106 117 106 106 117 105 105 117 105 105 116 105
105 116 104 104 116 104 104 115 104 104 115 103 103 114 103 103 114
102 102 113 102 102 0 0 0 0 0 0 0 0 0 0 0 0 0 0 0 0 0 0 0 0 0 0 0 0 0
0 0 0 0 0 0 0 0 0 0 0 0 0 0 0 0 0 0 0 0 0 0 0 0 0 0 0 0 0 0 0 0 0 0 0
0 0 0 0 0 0 0 0 0 0 0 0 0 0 0 0 0 0
0 0 0 0 0 0 0 0 0 0 0 0 0 0 0 0 0 0 0 0 0 0 0 0 135 122 122 135 122
122 135 122 122 135 122 122 135 122 122 135 122 122 135 121 121 135
121 121 135 121 121 134 121 121 134 121 121 134 121 121 134 121 121
134 120 120 134 120 120 133 120 120 133 120 120 133 120 120 15 152 76
16 162 81 17 166 83 17 166 83 17 166 83 16 164 82 16 162 81 16 159 80
16 156 78 15 152 76 15 148 74 14 143 71 14 138 69 13 133 66 13 127 64
12 121 61 12 115 58 11 109 54 10 102 51 9 95 47 9 87 44 8 79 40 7 71
35 6 62 31 5 52 26 4 42 21 3 31 15 3 26 13 3 26 13 3 26 13 3 26 13 3
26 13 124 112 112 124 111 111 123 111 111 123 111 111 123 110 110 122
110 110 122 110 110 122 110 110 121 109 109 121 109 109 121 109 109
120 108 108 120 108 108 120 108 108 120 108 108 119 107 107 119 107
107 119 107 107 118 106 106 118 106 106 118 106 106 117 105 105 117
105 105 117 105 105 116 105 105 116 104 104 115 104 104 115 104 104
115 103 103 114 103 103 114 103 103 114 102 102 113 102 102 112 101
101 0 0 0 0 0 0 0 0 0 0 0 0 0 0 0 0 0 0 0 0 0 0 0 0
142 128 128 142 128 128 142 128 128 142 128 128 142 127 127 141 127
127 141 127 127 141 127 127 141 127 127 141 127 127 141 127 127 140
126 126 140 126 126 140 126 126 140 126 126 140 126 126 140 126 126
139 125 125 139 125 125 139 125 125 139 125 125 138 125 125 138 124
124 138 124 124 138 124 124 138 124 124 14 140 70 15 154 77 16 158 79
16 160 80 16 159 80 16 158 79 16 156 78 15 153 76 15 150 75 15 146 73
14 142 71 14 137 69 13 132 66 13 127 64 12 122 61 12 116 58 11 109 55
10 103 51 10 96 48 9 89 44 8 81 41 7 73 37 6 65 32 6 56 28 5 46 23 4
36 18 3 26 13 3 26 13 3 26 13 3 26 13 3 26 13 3 26 13 128 115 115 128
115 115 128 115 115 127 114 114 127 114 114 127 114 114 126 114 114
126 113 113 126 113 113 125 113 113 125 112 112 125 112 112 124 112
112 124 112 112 124 111 111 123 111 111 123 111 111 123 110 110 122
110 110 122 110 110 122 110 110 121 109 109 121 109 109 121 109 109
120 108 108 120 108 108 120 108 108 119 107 107 119 107 107 119 107
107 118 107 107 118 106 106 118 106 106 117 106 106 117 105 105 117
105 105 116 105 105 116 104 104 116 104 104 115 104 104 115 104 104
115 103 103
147 132 132 146 132 132 146 132 132 146 132 132 146 131 131 146 131
131 146 131 131 145 131 131 145 131 131 145 131 131 145 130 130 145
130 130 144 130 130 144 130 130 144 130 130 144 129 129 144 129 129
143 129 129 143 129 129 143 129 129 143 128 128 142 128 128 142 128
128 142 128 128 142 127 127 141 127 127 141 127 127 15 145 73 15 151
75 15 152 76 15 152 76 15 151 76 15 149 75 15 146 73 14 143 72 14 140
70 14 135 68 13 131 65 13 126 63 12 121 60 12 115 58 11 110 55 10 103
52 10 97 48 9 90 45 8 83 41 8 75 38 7 67 34 6 59 29 5 49 25 4 40 20 3
29 15 3 26 13 3 26 13 3 26 13 3 26 13 3 26 13 132 119 119 132 119 119
131 118 118 131 118 118 131 118 118 131 117 117 130 117 117 130 117
117 130 117 117 129 116 116 129 116 116 129 116 116 128 115 115 128
115 115 128 115 115 127 115 115 127 114 114 127 114 114 126 114 114
126 113 113 126 113 113 125 113 113 125 113 113 125 112 112 124 112
112 124 112 112 124 111 111 123 111 111 123 111 111 123 111 111 122
110 110 122 110 110 122 110 110 121 109 109 121 109 109 121 109 109
121 108 108 120 108 108 120 108 108 120 108 108 119 107 107 119 107
107 119 107 107
150 135 135 150 135 135 150 135 135 150 135 135 150 135 135 149 135
135 149 134 134 149 134 134 149 134 134 149 134 134 148 134 134 148
133 133 148 133 133 148 133 133 148 133 133 147 133 133 147 132 132
147 132 132 147 132 132 146 132 132 146 131 131 146 131 131 146 131
131 145 131 131 145 131 131 145 130 130 145 130 130 13 134 67 14 142
71 14 144 72 14 145 72 14 144 72 14 142 71 14 139 70 14 136 68 13 133
66 13 129 64 12 124 62 12 120 60 11 114 57 11 109 54 10 103 52 10 97
48 9 90 45 8 84 42 8 76 38 7 69 34 6 60 30 5 52 26 4 43 21 3 33 16 3
26 13 3 26 13 3 26 13 3 26 13 3 26 13 3 26 13 135 122 122 135 122 122
135 121 121 134 121 121 134 121 121 134 120 120 133 120 120 133 120
120 133 120 120 132 119 119 132 119 119 132 119 119 132 118 118 131
118 118 131 118 118 131 117 117 130 117 117 130 117 117 130 117 117
129 116 116 129 116 116 129 116 116 128 115 115 128 115 115 128 115
115 127 115 115 127 114 114 127 114 114 126 114 114 126 113 113 126
113 113 125 113 113 125 113 113 125 112 112 124 112 112 124 112 112
124 111 111 124 111 111 123 111 111 123 111 111 123 110 110 122 110
110 122 110 110
154 138 138 153 138 138 153 138 138 153 138 138 153 138 138 153 137
137 152 137 137 152 137 137 152 137 137 152 137 137 152 136 136 151
136 136 151 136 136 151 136 136 151 135 135 150 135 135 150 135 135
150 135 135 150 135 135 149 134 134 149 134 134 149 134 134 149 134
134 148 133 133 148 133 133 148 133 133 147 133 133 12 118 59 13 131
66 14 135 68 14 136 68 14 136 68 13 134 67 13 132 66 13 129 65 13 126
63 12 122 61 12 117 59 11 113 56 11 108 54 10 102 51 10 96 48 9 90 45
8 84 42 8 77 38 7 69 35 6 62 31 5 53 27 4 45 22 4 35 18 3 26 13 3 26
13 3 26 13 3 26 13 3 26 13 3 26 13 3 26 13 138 124 124 138 124 124 138
124 124 137 124 124 137 123 123 137 123 123 136 123 123 136 122 122
136 122 122 135 122 122 135 122 122 135 121 121 134 121 121 134 121
121 134 120 120 133 120 120 133 120 120 133 120 120 132 119 119 132
119 119 132 119 119 132 118 118 131 118 118 131 118 118 131 118 118
130 117 117 130 117 117 130 117 117 129 116 116 129 116 116 129 116
116 128 116 116 128 115 115 128 115 115 127 115 115 127 114 114 127
114 114 126 114 114 126 114 114 126 113 113 126 113 113 125 113 113
125 112 112
156 141 141 156 141 141 156 140 140 156 140 140 156 140 140 155 140
140 155 140 140 155 139 139 155 139 139 154 139 139 154 139 139 154
139 139 154 138 138 153 138 138 153 138 138 153 138 138 153 137 137
152 137 137 152 137 137 152 137 137 152 136 136 151 136 136 151 136
136 151 136 136 151 135 135 150 135 135 150 135 135 150 135 135 12 118
59 12 125 62 13 127 63 13 127 63 13 126 63 12 124 62 12 121 61 12 118
59 11 114 57 11 110 55 11 105 53 10 100 50 9 95 47 9 89 44 8 83 41 8
76 38 7 69 35 6 62 31 5 54 27 5 46 23 4 37 18 3 27 14 3 26 13 3 26 13
3 26 13 3 26 13 3 26 13 3 26 13 141 127 127 141 127 127 140 126 126
140 126 126 140 126 126 139 126 126 139 125 125 139 125 125 139 125
125 138 124 124 138 124 124 138 124 124 137 124 124 137 123 123 137
123 123 136 123 123 136 122 122 136 122 122 135 122 122 135 122 122
135 121 121 134 121 121 134 121 121 134 120 120 133 120 120 133 120
120 133 120 120 133 119 119 132 119 119 132 119 119 132 118 118 131
118 118 131 118 118 131 118 118 130 117 117 130 117 117 130 117 117
129 117 117 129 116 116 129 116 116 129 116 116 128 115 115 128 115
115 128 115 115
159 143 143 159 143 143 158 143 143 158 142 142 158 142 142 158 142
142 157 142 142 157 142 142 157 141 141 157 141 141 156 141 141 156
141 141 156 140 140 156 140 140 155 140 140 155 140 140 155 139 139
155 139 139 154 139 139 154 139 139 154 138 138 154 138 138 153 138
138 153 138 138 153 137 137 152 137 137 152 137 137 152 137 137 10 98
49 11 112 56 12 116 58 12 117 59 12 117 58 12 115 58 11 113 56 11 109
55 11 106 53 10 102 51 10 97 49 9 92 46 9 87 43 8 81 40 7 75 37 7 68
34 6 61 31 5 54 27 5 46 23 4 37 19 3 28 14 3 26 13 3 26 13 3 26 13 3
26 13 3 26 13 3 26 13 3 26 13 143 129 129 143 129 129 143 128 128 142
128 128 142 128 128 142 128 128 141 127 127 141 127 127 141 127 127
140 126 126 140 126 126 140 126 126 140 126 126 139 125 125 139 125
125 139 125 125 138 124 124 138 124 124 138 124 124 137 124 124 137
123 123 137 123 123 136 123 123 136 123 123 136 122 122 136 122 122
135 122 122 135 121 121 135 121 121 134 121 121 134 121 121 134 120
120 133 120 120 133 120 120 133 120 120 132 119 119 132 119 119 132
119 119 132 118 118 131 118 118 131 118 118 131 118 118 130 117 117
130 117 117
161 145 145 161 145 145 160 144 144 160 144 144 160 144 144 160 144
144 160 144 144 159 143 143 159 143 143 159 143 143 158 143 143 158
142 142 158 142 142 158 142 142 157 142 142 157 141 141 157 141 141
157 141 141 156 141 141 156 141 141 156 140 140 156 140 140 155 140
140 155 140 140 155 139 139 154 139 139 154 139 139 154 139 139 154
138 138 9 95 47 10 103 52 11 106 53 11 106 53 11 105 53 10 103 52 10
100 50 10 97 48 9 93 46 9 88 44 8 84 42 8 78 39 7 72 36 7 66 33 6 60
30 5 53 26 4 45 22 4 37 18 3 28 14 3 26 13 3 26 13 3 26 13 3 26 13 3
26 13 3 26 13 3 26 13 146 131 131 145 131 131 145 131 131 145 130 130
144 130 130 144 130 130 144 129 129 143 129 129 143 129 129 143 129
129 143 128 128 142 128 128 142 128 128 142 127 127 141 127 127 141
127 127 141 127 127 140 126 126 140 126 126 140 126 126 140 126 126
139 125 125 139 125 125 139 125 125 138 124 124 138 124 124 138 124
124 137 124 124 137 123 123 137 123 123 136 123 123 136 123 123 136
122 122 136 122 122 135 122 122 135 121 121 135 121 121 134 121 121
134 121 121 134 120 120 133 120 120 133 120 120 133 120 120 133 119
119 132 119 119
163 146 146 163 146 146 162 146 146 162 146 146 162 146 146 162 145
145 161 145 145 161 145 145 161 145 145 161 144 144 160 144 144 160
144 144 160 144 144 159 144 144 159 143 143 159 143 143 159 143 143
158 143 143 158 142 142 158 142 142 158 142 142 157 142 142 157 141
141 157 141 141 156 141 141 156 141 141 156 140 140 156 140 140 155
140 140 155 140 140 9 86 43 9 92 46 9 94 47 9 94 47 9 93 46 9 90 45 9
87 44 8 83 42 8 79 40 7 74 37 7 69 34 6 63 32 6 57 28 5 50 25 4 43 22
4 35 18 3 27 14 3 26 13 3 26 13 3 26 13 3 26 13 3 26 13 3 26 13 3 26
13 148 133 133 147 133 133 147 132 132 147 132 132 147 132 132 146 132
132 146 131 131 146 131 131 145 131 131 145 131 131 145 130 130 144
130 130 144 130 130 144 129 129 144 129 129 143 129 129 143 129 129
143 128 128 142 128 128 142 128 128 142 128 128 141 127 127 141 127
127 141 127 127 141 126 126 140 126 126 140 126 126 140 126 126 139
125 125 139 125 125 139 125 125 138 125 125 138 124 124 138 124 124
138 124 124 137 124 124 137 123 123 137 123 123 136 123 123 136 122
122 136 122 122 136 122 122 135 122 122 135 121 121 135 121 121 134
121 121
164 148 148 164 148 148 164 147 147 164 147 147 163 147 147 163 147
147 163 147 147 163 146 146 162 146 146 162 146 146 162 146 146 162
145 145 161 145 145 161 145 145 161 145 145 160 144 144 160 144 144
160 144 144 160 144 144 159 143 143 159 143 143 159 143 143 159 143
143 158 142 142 158 142 142 158 142 142 157 142 142 157 141 141 157
141 141 157 141 141 156 141 141 7 74 37 8 80 40 8 81 41 8 81 40 8 79
39 8 76 38 7 73 36 7 69 34 6 64 32 6 59 29 5 53 26 5 47 23 4 40 20 3
33 16 3 26 13 3 26 13 3 26 13 3 26 13 3 26 13 3 26 13 3 26 13 3 26 13
150 135 135 149 134 134 149 134 134 149 134 134 149 134 134 148 133
133 148 133 133 148 133 133 147 133 133 147 132 132 147 132 132 146
132 132 146 132 132 146 131 131 146 131 131 145 131 131 145 130 130
145 130 130 144 130 130 144 130 130 144 129 129 143 129 129 143 129
129 143 129 129 143 128 128 142 128 128 142 128 128 142 128 128 141
127 127 141 127 127 141 127 127 141 127 127 140 126 126 140 126 126
140 126 126 139 125 125 139 125 125 139 125 125 139 125 125 138 124
124 138 124 124 138 124 124 137 124 124 137 123 123 137 123 123 137
123 123 136 123 123
166 149 149 165 149 149 165 149 149 165 148 148 165 148 148 164 148
148 164 148 148 164 148 148 164 147 147 163 147 147 163 147 147 163
147 147 163 146 146 162 146 146 162 146 146 162 146 146 162 145 145
161 145 145 161 145 145 161 145 145 161 144 144 160 144 144 160 144
144 160 144 144 159 143 143 159 143 143 159 143 143 159 143 143 158
142 142 158 142 142 158 142 142 157 142 142 6 59 30 6 65 32 7 66 33 7
66 33 6 64 32 6 61 30 6 57 28 5 52 26 5 47 24 4 41 21 4 35 18 3 28 14
3 26 13 3 26 13 3 26 13 3 26 13 3 26 13 3 26 13 3 26 13 3 26 13 151
136 136 151 136 136 151 136 136 151 136 136 150 135 135 150 135 135
150 135 135 149 134 134 149 134 134 149 134 134 149 134 134 148 133
133 148 133 133 148 133 133 147 133 133 147 132 132 147 132 132 147
132 132 146 132 132 146 131 131 146 131 131 145 131 131 145 131 131
145 130 130 145 130 130 144 130 130 144 130 130 144 129 129 143 129
129 143 129 129 143 129 129 143 128 128 142 128 128 142 128 128 142
127 127 141 127 127 141 127 127 141 127 127 141 126 126 140 126 126
140 126 126 140 126 126 139 125 125 139 125 125 139 125 125 139 125
125 138 124 124 138 124 124
167 150 150 167 150 150 166 150 150 166 150 150 166 149 149 166 149
149 165 149 149 165 149 149 165 148 148 165 148 148 164 148 148 164
148 148 164 147 147 164 147 147 163 147 147 163 147 147 163 147 147
163 146 146 162 146 146 162 146 146 162 146 146 161 145 145 161 145
145 161 145 145 161 145 145 160 144 144 160 144 144 160 144 144 160
144 144 159 143 143 159 143 143 159 143 143 158 143 143 4 38 19 5 47
24 5 49 24 5 48 24 5 46 23 4 43 21 4 39 19 3 34 17 3 28 14 3 26 13 3
26 13 3 26 13 3 26 13 3 26 13 3 26 13 3 26 13 3 26 13 3 26 13 153 138
138 153 138 138 153 137 137 152 137 137 152 137 137 152 137 137 151
136 136 151 136 136 151 136 136 151 135 135 150 135 135 150 135 135
150 135 135 149 134 134 149 134 134 149 134 134 149 134 134 148 133
133 148 133 133 148 133 133 147 133 133 147 132 132 147 132 132 147
132 132 146 132 132 146 131 131 146 131 131 145 131 131 145 131 131
145 130 130 145 130 130 144 130 130 144 130 130 144 129 129 143 129
129 143 129 129 143 129 129 143 128 128 142 128 128 142 128 128 142
128 128 142 127 127 141 127 127 141 127 127 141 127 127 140 126 126
140 126 126 140 126 126 140 126 126
168 151 151 168 151 151 168 151 151 167 151 151 167 150 150 167 150
150 167 150 150 166 150 150 166 149 149 166 149 149 165 149 149 165
149 149 165 148 148 165 148 148 164 148 148 164 148 148 164 148 148
164 147 147 163 147 147 163 147 147 163 147 147 163 146 146 162 146
146 162 146 146 162 146 146 162 145 145 161 145 145 161 145 145 161
145 145 160 144 144 160 144 144 160 144 144 160 144 144 159 143 143
159 143 143 3 26 13 3 27 14 3 28 14 3 26 13 3 26 13 3 26 13 3 26 13 3
26 13 3 26 13 3 26 13 3 26 13 3 26 13 3 26 13 3 26 13 155 139 139 155
139 139 154 139 139 154 139 139 154 138 138 153 138 138 153 138 138
153 138 138 153 137 137 152 137 137 152 137 137 152 137 137 152 136
136 151 136 136 151 136 136 151 136 136 150 135 135 150 135 135 150
135 135 150 135 135 149 134 134 149 134 134 149 134 134 148 134 134
148 133 133 148 133 133 148 133 133 147 133 133 147 132 132 147 132
132 147 132 132 146 132 132 146 131 131 146 131 131 145 131 131 145
131 131 145 130 130 145 130 130 144 130 130 144 130 130 144 129 129
144 129 129 143 129 129 143 129 129 143 128 128 142 128 128 142 128
128 142 128 128 142 127 127 141 127 127 141 127 127
169 152 152 169 152 152 168 152 152 168 151 151 168 151 151 168 151
151 167 151 151 167 151 151 167 150 150 167 150 150 166 150 150 166
150 150 166 149 149 166 149 149 165 149 149 165 149 149 165 148 148
165 148 148 164 148 148 164 148 148 164 147 147 164 147 147 163 147
147 163 147 147 163 147 147 163 146 146 162 146 146 162 146 146 162
146 146 161 145 145 161 145 145 161 145 145 161 145 145 160 144 144
160 144 144 160 144 144 160 144 144 159 143 143 3 26 13 3 26 13 3 26
13 3 26 13 3 26 13 3 26 13 3 26 13 3 26 13 157 141 141 157 141 141 156
141 141 156 140 140 156 140 140 155 140 140 155 140 140 155 139 139
155 139 139 154 139 139 154 139 139 154 138 138 154 138 138 153 138
138 153 138 138 153 137 137 152 137 137 152 137 137 152 137 137 152
136 136 151 136 136 151 136 136 151 136 136 151 135 135 150 135 135
150 135 135 150 135 135 149 135 135 149 134 134 149 134 134 149 134
134 148 134 134 148 133 133 148 133 133 148 133 133 147 133 133 147
132 132 147 132 132 146 132 132 146 132 132 146 131 131 146 131 131
145 131 131 145 131 131 145 130 130 145 130 130 144 130 130 144 130
130 144 129 129 144 129 129 143 129 129 143 129 129 143 128 128 142
128 128
170 153 153 170 153 153 169 152 152 169 152 152 169 152 152 169 152
152 168 152 152 168 151 151 168 151 151 168 151 151 167 151 151 167
150 150 167 150 150 167 150 150 166 150 150 166 149 149 166 149 149
166 149 149 165 149 149 165 149 149 165 148 148 164 148 148 164 148
148 164 148 148 164 147 147 163 147 147 163 147 147 163 147 147 163
146 146 162 146 146 162 146 146 162 146 146 162 145 145 161 145 145
161 145 145 161 145 145 161 144 144 160 144 144 160 144 144 160 144
144 159 144 144 159 143 143 159 143 143 159 143 143 158 143 143 158
142 142 158 142 142 158 142 142 157 142 142 157 141 141 157 141 141
156 141 141 156 141 141 156 140 140 156 140 140 155 140 140 155 140
140 155 139 139 155 139 139 154 139 139 154 139 139 154 138 138 154
138 138 153 138 138 153 138 138 153 137 137 152 137 137 152 137 137
152 137 137 152 137 137 151 136 136 151 136 136 151 136 136 151 136
136 150 135 135 150 135 135 150 135 135 150 135 135 149 134 134 149
134 134 149 134 134 148 134 134 148 133 133 148 133 133 148 133 133
147 133 133 147 132 132 147 132 132 147 132 132 146 132 132 146 132
132 146 131 131 146 131 131 145 131 131 145 131 131 145 130 130 145
130 130 144 130 130 144 130 130 144 129 129
171 154 154 170 153 153 170 153 153 170 153 153 170 153 153 169 152
152 169 152 152 169 152 152 169 152 152 168 152 152 168 151 151 168
151 151 168 151 151 167 151 151 167 150 150 167 150 150 167 150 150
166 150 150 166 149 149 166 149 149 166 149 149 165 149 149 165 149
149 165 148 148 165 148 148 164 148 148 164 148 148 164 147 147 163
147 147 163 147 147 163 147 147 163 146 146 162 146 146 162 146 146
162 146 146 162 146 146 161 145 145 161 145 145 161 145 145 161 145
145 160 144 144 160 144 144 160 144 144 160 144 144 159 143 143 159
143 143 159 143 143 159 143 143 158 142 142 158 142 142 158 142 142
157 142 142 157 141 141 157 141 141 157 141 141 156 141 141 156 141
141 156 140 140 156 140 140 155 140 140 155 140 140 155 139 139 155
139 139 154 139 139 154 139 139 154 138 138 154 138 138 153 138 138
153 138 138 153 137 137 152 137 137 152 137 137 152 137 137 152 137
137 151 136 136 151 136 136 151 136 136 151 136 136 150 135 135 150
135 135 150 135 135 150 135 135 149 134 134 149 134 134 149 134 134
149 134 134 148 133 133 148 133 133 148 133 133 148 133 133 147 133
133 147 132 132 147 132 132 147 132 132 146 132 132 146 131 131 146
131 131 145 131 131 145 131 131 145 130 130
171 154 154 171 154 154 171 154 154 171 153 153 170 153 153 170 153
153 170 153 153 170 153 153 169 152 152 169 152 152 169 152 152 169
152 152 168 151 151 168 151 151 168 151 151 168 151 151 167 151 151
167 150 150 167 150 150 167 150 150 166 150 150 166 149 149 166 149
149 166 149 149 165 149 149 165 149 149 165 148 148 165 148 148 164
148 148 164 148 148 164 147 147 164 147 147 163 147 147 163 147 147
163 146 146 162 146 146 162 146 146 162 146 146 162 146 146 161 145
145 161 145 145 161 145 145 161 145 145 160 144 144 160 144 144 160
144 144 160 144 144 159 143 143 159 143 143 159 143 143 159 143 143
158 143 143 158 142 142 158 142 142 158 142 142 157 142 142 157 141
141 157 141 141 157 141 141 156 141 141 156 140 140 156 140 140 155
140 140 155 140 140 155 139 139 155 139 139 154 139 139 154 139 139
154 139 139 154 138 138 153 138 138 153 138 138 153 138 138 153 137
137 152 137 137 152 137 137 152 137 137 152 136 136 151 136 136 151
136 136 151 136 136 151 136 136 150 135 135 150 135 135 150 135 135
150 135 135 149 134 134 149 134 134 149 134 134 149 134 134 148 134
134 148 133 133 148 133 133 148 133 133 147 133 133 147 132 132 147
132 132 147 132 132 146 132 132 146 132 132
172 155 155 172 154 154 171 154 154 171 154 154 171 154 154 171 154
154 170 153 153 170 153 153 170 153 153 170 153 153 169 153 153 169
152 152 169 152 152 169 152 152 168 152 152 168 151 151 168 151 151
168 151 151 167 151 151 167 151 151 167 150 150 167 150 150 166 150
150 166 150 150 166 149 149 166 149 149 165 149 149 165 149 149 165
148 148 165 148 148 164 148 148 164 148 148 164 148 148 164 147 147
163 147 147 163 147 147 163 147 147 163 146 146 162 146 146 162 146
146 162 146 146 162 146 146 161 145 145 161 145 145 161 145 145 161
145 145 160 144 144 160 144 144 160 144 144 160 144 144 159 143 143
159 143 143 159 143 143 159 143 143 158 143 143 158 142 142 158 142
142 158 142 142 157 142 142 157 141 141 157 141 141 157 141 141 156
141 141 156 141 141 156 140 140 156 140 140 155 140 140 155 140 140
155 139 139 155 139 139 154 139 139 154 139 139 154 138 138 154 138
138 153 138 138 153 138 138 153 138 138 153 137 137 152 137 137 152
137 137 152 137 137 152 136 136 151 136 136 151 136 136 151 136 136
151 136 136 150 135 135 150 135 135 150 135 135 150 135 135 149 134
134 149 134 134 149 134 134 149 134 134 148 134 134 148 133 133 148
133 133 148 133 133 147 133 133 147 132 132
172 155 155 172 155 155 172 155 155 172 155 155 171 154 154 171 154
154 171 154 154 171 154 154 171 153 153 170 153 153 170 153 153 170
153 153 170 153 153 169 152 152 169 152 152 169 152 152 169 152 152
168 152 152 168 151 151 168 151 151 168 151 151 167 151 151 167 150
150 167 150 150 167 150 150 166 150 150 166 150 150 166 149 149 166
149 149 165 149 149 165 149 149 165 148 148 165 148 148 164 148 148
164 148 148 164 148 148 164 147 147 163 147 147 163 147 147 163 147
147 163 146 146 162 146 146 162 146 146 162 146 146 162 145 145 161
145 145 161 145 145 161 145 145 161 145 145 160 144 144 160 144 144
160 144 144 160 144 144 159 143 143 159 143 143 159 143 143 159 143
143 158 143 143 158 142 142 158 142 142 158 142 142 157 142 142 157
141 141 157 141 141 157 141 141 156 141 141 156 141 141 156 140 140
156 140 140 155 140 140 155 140 140 155 139 139 155 139 139 154 139
139 154 139 139 154 139 139 154 138 138 153 138 138 153 138 138 153
138 138 153 137 137 153 137 137 152 137 137 152 137 137 152 137 137
152 136 136 151 136 136 151 136 136 151 136 136 151 136 136 150 135
135 150 135 135 150 135 135 150 135 135 149 134 134 149 134 134 149
134 134 149 134 134 148 134 134 148 133 133
173 156 156 173 155 155 172 155 155 172 155 155 172 155 155 172 155
155 172 154 154 171 154 154 171 154 154 171 154 154 171 154 154 170
153 153 170 153 153 170 153 153 170 153 153 169 152 152 169 152 152
169 152 152 169 152 152 168 152 152 168 151 151 168 151 151 168 151
151 167 151 151 167 150 150 167 150 150 167 150 150 166 150 150 166
150 150 166 149 149 166 149 149 166 149 149 165 149 149 165 149 149
165 148 148 165 148 148 164 148 148 164 148 148 164 147 147 164 147
147 163 147 147 163 147 147 163 147 147 163 146 146 162 146 146 162
146 146 162 146 146 162 145 145 161 145 145 161 145 145 161 145 145
161 145 145 160 144 144 160 144 144 160 144 144 160 144 144 159 143
143 159 143 143 159 143 143 159 143 143 158 143 143 158 142 142 158
142 142 158 142 142 157 142 142 157 141 141 157 141 141 157 141 141
156 141 141 156 141 141 156 140 140 156 140 140 156 140 140 155 140
140 155 140 140 155 139 139 155 139 139 154 139 139 154 139 139 154
138 138 154 138 138 153 138 138 153 138 138 153 138 138 153 137 137
152 137 137 152 137 137 152 137 137 152 137 137 151 136 136 151 136
136 151 136 136 151 136 136 151 135 135 150 135 135 150 135 135 150
135 135 150 135 135 149 134 134 149 134 134
173 156 156 173 156 156 173 156 156 173 155 155 172 155 155 172 155
155 172 155 155 172 155 155 172 154 154 171 154 154 171 154 154 171
154 154 171 154 154 170 153 153 170 153 153 170 153 153 170 153 153
169 152 152 169 152 152 169 152 152 169 152 152 168 152 152 168 151
151 168 151 151 168 151 151 168 151 151 167 151 151 167 150 150 167
150 150 167 150 150 166 150 150 166 149 149 166 149 149 166 149 149
165 149 149 165 149 149 165 148 148 165 148 148 164 148 148 164 148
148 164 148 148 164 147 147 163 147 147 163 147 147 163 147 147 163
146 146 162 146 146 162 146 146 162 146 146 162 146 146 162 145 145
161 145 145 161 145 145 161 145 145 161 145 145 160 144 144 160 144
144 160 144 144 160 144 144 159 143 143 159 143 143 159 143 143 159
143 143 158 143 143 158 142 142 158 142 142 158 142 142 157 142 142
157 142 142 157 141 141 157 141 141 157 141 141 156 141 141 156 140
140 156 140 140 156 140 140 155 140 140 155 140 140 155 139 139 155
139 139 154 139 139 154 139 139 154 139 139 154 138 138 153 138 138
153 138 138 153 138 138 153 137 137 153 137 137 152 137 137 152 137
137 152 137 137 152 136 136 151 136 136 151 136 136 151 136 136 151
136 136 150 135 135 150 135 135 150 135 135
174 156 156 174 156 156 173 156 156 173 156 156 173 156 156 173 155
155 172 155 155 172 155 155 172 155 155 172 155 155 171 154 154 171
154 154 171 154 154 171 154 154 171 154 154 170 153 153 170 153 153
170 153 153 170 153 153 169 152 152 169 152 152 169 152 152 169 152
152 168 152 152 168 151 151 168 151 151 168 151 151 168 151 151 167
151 151 167 150 150 167 150 150 167 150 150 166 150 150 166 150 150
166 149 149 166 149 149 165 149 149 165 149 149 165 148 148 165 148
148 164 148 148 164 148 148 164 148 148 164 147 147 164 147 147 163
147 147 163 147 147 163 147 147 163 146 146 162 146 146 162 146 146
162 146 146 162 145 145 161 145 145 161 145 145 161 145 145 161 145
145 160 144 144 160 144 144 160 144 144 160 144 144 160 144 144 159
143 143 159 143 143 159 143 143 159 143 143 158 143 143 158 142 142
158 142 142 158 142 142 157 142 142 157 142 142 157 141 141 157 141
141 157 141 141 156 141 141 156 140 140 156 140 140 156 140 140 155
140 140 155 140 140 155 139 139 155 139 139 154 139 139 154 139 139
154 139 139 154 138 138 154 138 138 153 138 138 153 138 138 153 138
138 153 137 137 152 137 137 152 137 137 152 137 137 152 137 137 152
136 136 151 136 136 151 136 136 151 136 136
174 157 157 174 157 157 174 156 156 173 156 156 173 156 156 173 156
156 173 156 156 173 155 155 172 155 155 172 155 155 172 155 155 172
155 155 171 154 154 171 154 154 171 154 154 171 154 154 171 153 153
170 153 153 170 153 153 170 153 153 170 153 153 169 152 152 169 152
152 169 152 152 169 152 152 168 152 152 168 151 151 168 151 151 168
151 151 168 151 151 167 151 151 167 150 150 167 150 150 167 150 150
166 150 150 166 150 150 166 149 149 166 149 149 165 149 149 165 149
149 165 149 149 165 148 148 165 148 148 164 148 148 164 148 148 164
147 147 164 147 147 163 147 147 163 147 147 163 147 147 163 146 146
162 146 146 162 146 146 162 146 146 162 146 146 162 145 145 161 145
145 161 145 145 161 145 145 161 145 145 160 144 144 160 144 144 160
144 144 160 144 144 159 144 144 159 143 143 159 143 143 159 143 143
159 143 143 158 143 143 158 142 142 158 142 142 158 142 142 157 142
142 157 141 141 157 141 141 157 141 141 157 141 141 156 141 141 156
140 140 156 140 140 156 140 140 155 140 140 155 140 140 155 139 139
155 139 139 155 139 139 154 139 139 154 139 139 154 138 138 154 138
138 153 138 138 153 138 138 153 138 138 153 137 137 153 137 137 152
137 137 152 137 137 152 137 137 152 136 136
175 157 157 174 157 157 174 157 157 174 156 156 174 156 156 173 156
156 173 156 156 173 156 156 173 155 155 172 155 155 172 155 155 172
155 155 172 155 155 172 154 154 171 154 154 171 154 154 171 154 154
171 154 154 170 153 153 170 153 153 170 153 153 170 153 153 170 153
153 169 152 152 169 152 152 169 152 152 169 152 152 168 152 152 168
151 151 168 151 151 168 151 151 168 151 151 167 151 151 167 150 150
167 150 150 167 150 150 166 150 150 166 150 150 166 149 149 166 149
149 166 149 149 165 149 149 165 149 149 165 148 148 165 148 148 164
148 148 164 148 148 164 148 148 164 147 147 163 147 147 163 147 147
163 147 147 163 147 147 163 146 146 162 146 146 162 146 146 162 146
146 162 145 145 161 145 145 161 145 145 161 145 145 161 145 145 161
144 144 160 144 144 160 144 144 160 144 144 160 144 144 159 143 143
159 143 143 159 143 143 159 143 143 159 143 143 158 142 142 158 142
142 158 142 142 158 142 142 157 142 142 157 141 141 157 141 141 157
141 141 157 141 141 156 141 141 156 140 140 156 140 140 156 140 140
155 140 140 155 140 140 155 139 139 155 139 139 155 139 139 154 139
139 154 139 139 154 139 139 154 138 138 153 138 138 153 138 138 153
138 138 153 138 138 153 137 137 152 137 137
